<svg xmlns="http://www.w3.org/2000/svg" viewBox="0 0 600 400">
  <defs>
    <linearGradient id="g" x1="0" y1="0" x2="1" y2="1">
      <stop offset="0" stop-color="#0ea5e9"/>
      <stop offset="1" stop-color="#818cf8"/>
    </linearGradient>
  </defs>
  <rect width="600" height="400" fill="#0e1630"/>

  <!-- envelope -->
  <rect x="170" y="120" width="260" height="170" rx="16" fill="#172142" stroke="#2a3763" stroke-width="2.5"/>
  <path d="M178 136 L300 226 L422 136" fill="none" stroke="url(#g)" stroke-width="7"
        stroke-linecap="round" stroke-linejoin="round"/>

  <!-- phone badge -->
  <circle cx="170" cy="130" r="46" fill="url(#g)" stroke="#0e1630" stroke-width="6"/>
  <path d="M152 112 q-6 34 34 40 l6 -12 q2 -5 8 -3 l12 5 q5 2 4 8 q-4 18 -26 14 q-44 -8 -54 -50 q-4 -22 14 -26 q6 -1 8 4 l5 12 q2 6 -3 8 z"
        fill="#0e1630" transform="translate(6 4)"/>

  <!-- location pin -->
  <path d="M430 92 q34 0 34 32 q0 24 -34 60 q-34 -36 -34 -60 q0 -32 34 -32z"
        fill="#4ade80" stroke="#0e1630" stroke-width="5"/>
  <circle cx="430" cy="126" r="12" fill="#0e1630"/>

  <!-- reply dots -->
  <circle cx="262" cy="330" r="9" fill="#38bdf8"/>
  <circle cx="300" cy="330" r="9" fill="#818cf8"/>
  <circle cx="338" cy="330" r="9" fill="#4ade80"/>
</svg>
