<svg xmlns="http://www.w3.org/2000/svg" viewBox="0 0 600 440">
  <defs>
    <linearGradient id="g" x1="0" y1="0" x2="1" y2="1">
      <stop offset="0" stop-color="#0ea5e9"/>
      <stop offset="1" stop-color="#818cf8"/>
    </linearGradient>
  </defs>
  <rect width="600" height="440" fill="#0e1630"/>

  <!-- monitor -->
  <rect x="110" y="70" width="380" height="240" rx="18" fill="#172142" stroke="#2a3763" stroke-width="2.5"/>
  <rect x="278" y="310" width="44" height="34" fill="#2a3763"/>
  <rect x="216" y="344" width="168" height="16" rx="8" fill="#2a3763"/>

  <!-- screen: healthy business dashboard -->
  <rect x="134" y="94" width="150" height="90" rx="10" fill="#1d2a52"/>
  <rect x="148" y="150" width="20" height="22" rx="4" fill="#38bdf8"/>
  <rect x="176" y="136" width="20" height="36" rx="4" fill="url(#g)"/>
  <rect x="204" y="122" width="20" height="50" rx="4" fill="#38bdf8"/>
  <rect x="232" y="110" width="20" height="62" rx="4" fill="url(#g)"/>
  <rect x="134" y="196" width="150" height="90" rx="10" fill="#1d2a52"/>
  <polyline points="150,266 184,240 214,250 244,214 268,222" fill="none" stroke="#4ade80"
            stroke-width="5" stroke-linecap="round" stroke-linejoin="round"/>
  <rect x="300" y="94" width="166" height="60" rx="10" fill="#1d2a52"/>
  <rect x="314" y="110" width="60" height="8" rx="4" fill="#a7b1cc"/>
  <rect x="314" y="128" width="100" height="12" rx="6" fill="#38bdf8"/>
  <rect x="300" y="166" width="166" height="60" rx="10" fill="#1d2a52"/>
  <rect x="314" y="182" width="60" height="8" rx="4" fill="#a7b1cc"/>
  <rect x="314" y="200" width="80" height="12" rx="6" fill="#4ade80"/>

  <!-- big "fixed" check overlapping the screen -->
  <circle cx="424" cy="268" r="52" fill="#4ade80" stroke="#0e1630" stroke-width="8"/>
  <polyline points="398,268 416,288 452,248" fill="none" stroke="#0e1630" stroke-width="11"
            stroke-linecap="round" stroke-linejoin="round"/>

  <!-- wrench: we fix it -->
  <g transform="rotate(40 130 330)">
    <path d="M130 296 a26 26 0 1 0 18 44 l54 0 a12 12 0 0 0 0 -24 l-54 0 a26 26 0 0 0 -18 -20z"
          fill="url(#g)"/>
    <circle cx="128" cy="322" r="12" fill="#0e1630"/>
  </g>
</svg>
