<svg xmlns="http://www.w3.org/2000/svg" viewBox="0 0 600 400">
  <defs>
    <linearGradient id="g" x1="0" y1="0" x2="1" y2="1">
      <stop offset="0" stop-color="#0ea5e9"/>
      <stop offset="1" stop-color="#818cf8"/>
    </linearGradient>
  </defs>
  <rect width="600" height="400" fill="#0e1630"/>
  <!-- dashboard panel -->
  <rect x="105" y="55" width="390" height="290" rx="16" fill="#172142" stroke="#2a3763" stroke-width="2"/>
  <!-- header bar -->
  <path d="M105 71a16 16 0 0 1 16-16h358a16 16 0 0 1 16 16v28H105z" fill="#1d2a52"/>
  <rect x="127" y="72" width="110" height="12" rx="6" fill="#38bdf8"/>
  <circle cx="463" cy="78" r="5" fill="#4ade80"/>
  <circle cx="445" cy="78" r="5" fill="#a7b1cc"/>
  <!-- KPI tiles -->
  <rect x="127" y="115" width="108" height="52" rx="10" fill="#1d2a52"/>
  <rect x="139" y="127" width="44" height="7" rx="3.5" fill="#a7b1cc"/>
  <rect x="139" y="142" width="64" height="12" rx="6" fill="#38bdf8"/>
  <rect x="246" y="115" width="108" height="52" rx="10" fill="#1d2a52"/>
  <rect x="258" y="127" width="44" height="7" rx="3.5" fill="#a7b1cc"/>
  <rect x="258" y="142" width="64" height="12" rx="6" fill="#4ade80"/>
  <!-- donut chart -->
  <circle cx="424" cy="141" r="26" fill="none" stroke="#2a3763" stroke-width="12"/>
  <circle cx="424" cy="141" r="26" fill="none" stroke="url(#g)" stroke-width="12"
          stroke-dasharray="115 165" stroke-linecap="round" transform="rotate(-90 424 141)"/>
  <!-- bar chart -->
  <rect x="127" y="187" width="227" height="136" rx="10" fill="#1d2a52"/>
  <rect x="147" y="265" width="26" height="40" rx="5" fill="#38bdf8"/>
  <rect x="187" y="240" width="26" height="65" rx="5" fill="url(#g)"/>
  <rect x="227" y="252" width="26" height="53" rx="5" fill="#38bdf8"/>
  <rect x="267" y="215" width="26" height="90" rx="5" fill="url(#g)"/>
  <rect x="307" y="230" width="26" height="75" rx="5" fill="#38bdf8"/>
  <!-- line chart -->
  <rect x="366" y="187" width="129" height="136" rx="10" fill="#1d2a52"/>
  <polyline points="382,295 410,268 434,278 462,232 480,240" fill="none"
            stroke="#4ade80" stroke-width="5" stroke-linecap="round" stroke-linejoin="round"/>
  <circle cx="480" cy="240" r="6" fill="#4ade80"/>
</svg>
