<svg xmlns="http://www.w3.org/2000/svg" viewBox="0 0 600 400">
  <defs>
    <linearGradient id="g" x1="0" y1="0" x2="1" y2="1">
      <stop offset="0" stop-color="#0ea5e9"/>
      <stop offset="1" stop-color="#818cf8"/>
    </linearGradient>
  </defs>
  <rect width="600" height="400" fill="#0e1630"/>

  <!-- browser window -->
  <rect x="105" y="60" width="390" height="280" rx="16" fill="#172142" stroke="#2a3763" stroke-width="2"/>
  <path d="M105 76a16 16 0 0 1 16-16h358a16 16 0 0 1 16 16v26H105z" fill="#1d2a52"/>
  <circle cx="130" cy="81" r="6" fill="#f87171"/>
  <circle cx="150" cy="81" r="6" fill="#fbbf24"/>
  <circle cx="170" cy="81" r="6" fill="#4ade80"/>
  <rect x="195" y="70" width="220" height="22" rx="11" fill="#0e1630"/>
  <rect x="208" y="77" width="120" height="8" rx="4" fill="#a7b1cc"/>

  <!-- search bar -->
  <rect x="135" y="126" width="330" height="42" rx="21" fill="#0e1630" stroke="#38bdf8" stroke-width="2.5"/>
  <circle cx="435" cy="147" r="10" fill="none" stroke="#38bdf8" stroke-width="4"/>
  <line x1="442" y1="155" x2="452" y2="164" stroke="#38bdf8" stroke-width="4" stroke-linecap="round"/>
  <rect x="155" y="142" width="150" height="10" rx="5" fill="#a7b1cc"/>

  <!-- search results, top one highlighted = ranking #1 -->
  <rect x="135" y="190" width="270" height="38" rx="10" fill="url(#g)"/>
  <rect x="150" y="204" width="150" height="10" rx="5" fill="#ffffff" opacity="0.92"/>
  <rect x="135" y="240" width="270" height="30" rx="10" fill="#1d2a52"/>
  <rect x="150" y="251" width="120" height="9" rx="4.5" fill="#a7b1cc"/>
  <rect x="135" y="282" width="270" height="30" rx="10" fill="#1d2a52"/>
  <rect x="150" y="293" width="140" height="9" rx="4.5" fill="#a7b1cc"/>

  <!-- ranking-up arrow -->
  <line x1="446" y1="300" x2="446" y2="222" stroke="#4ade80" stroke-width="7" stroke-linecap="round"/>
  <polyline points="424,246 446,220 468,246" fill="none" stroke="#4ade80" stroke-width="7"
            stroke-linecap="round" stroke-linejoin="round"/>
</svg>
